# xmcd
#
# Track frame offsets:
#	150
#	15062
#	27620
#	51514
#	65876
#	82364
#	99420
#	112567
#	124328
#	135305
#	147385
#	160248
#	172204
#	189302
#	205794
#	221643
#
# Disc length: 3268 seconds
#
# Revision: 0
# Processed by: cddbd v1.5.1PL2 Copyright (c) Steve Scherf et al.
# Submitted via: dBpowerAMP V4.0
#
DISCID=e90cc210
DTITLE=Various Artist - Soul Divas cd1
DYEAR=2005
DGENRE=Soul
TTITLE0=Diana Ross and The Supremes - Reflections
TTITLE1=Martha and The Vandellas - (Love is like a) heatwave
TTITLE2=Shakatak - Dark is the night
TTITLE3=Donna Summer - I feel love
TTITLE4=Vanessa Williams - Save the best for last
TTITLE5=Shanice - I love your smile
TTITLE6=Fontella Bass - Rescue me
TTITLE7=Gladys Knight and The Pips - I heared it through the grapevine
TTITLE8=The Marvelettes - Please Mr. Postman
TTITLE9=The Supremes - Come see about me
TTITLE10=Mary Wells - My guy
TTITLE11=Syreeta - You made me feel like (everything is alright)
TTITLE12=Dina Caroll - Ain't no man
TTITLE13=Gabrielle - Dreams
TTITLE14=Mica Paris - My one temptation
TTITLE15=Patti LaBelle - Oh, people
EXTD=Universal 983 331-5
EXTT0=
EXTT1=
EXTT2=
EXTT3=
EXTT4=
EXTT5=
EXTT6=
EXTT7=
EXTT8=
EXTT9=
EXTT10=
EXTT11=
EXTT12=
EXTT13=
EXTT14=
EXTT15=
PLAYORDER=
